<svg version="1.1" xmlns="http://www.w3.org/2000/svg" viewBox="0 0 307.4944911997766 279" width="614.9889823995532" height="558">
  <!-- svg-source:excalidraw -->
  
  <defs>
    <style>
      @font-face {
        font-family: "Virgil";
        src: url("https://excalidraw.com/Virgil.woff2");
      }
      @font-face {
        font-family: "Cascadia";
        src: url("https://excalidraw.com/Cascadia.woff2");
      }
    </style>
  </defs>
  <rect x="0" y="0" width="307.4944911997766" height="279" fill="none"/><g transform="translate(59 130) rotate(0 83.5 -2.5)" stroke="none" fill="#000000"><path d="M -0.58,-1.17 Q -0.58,-1.17 1.71,-2.32 4.02,-3.47 6.89,-4.02 9.77,-4.56 12.65,-5.06 15.53,-5.56 20.86,-5.78 26.19,-6.00 32.75,-6.09 39.31,-6.18 46.98,-6.21 54.65,-6.25 63.38,-6.27 72.10,-6.28 80.69,-6.29 89.29,-6.30 97.85,-6.01 106.41,-5.73 114.37,-5.32 122.32,-4.91 129.75,-4.16 137.19,-3.41 143.46,-3.09 149.74,-2.78 154.16,-2.35 158.58,-1.92 160.80,-2.59 163.02,-3.25 163.24,-3.27 163.45,-3.30 163.65,-3.25 163.86,-3.21 164.04,-3.10 164.23,-2.99 164.36,-2.83 164.50,-2.66 164.58,-2.47 164.66,-2.27 164.67,-2.06 164.68,-1.85 164.63,-1.64 164.57,-1.44 164.45,-1.26 164.33,-1.08 164.16,-0.95 163.99,-0.83 163.79,-0.76 163.59,-0.69 163.38,-0.69 163.17,-0.69 162.96,-0.76 162.76,-0.82 162.59,-0.95 162.42,-1.08 162.31,-1.26 162.19,-1.43 162.13,-1.64 162.07,-1.84 162.08,-2.05 162.09,-2.27 162.17,-2.46 162.25,-2.66 162.39,-2.82 162.53,-2.99 162.71,-3.10 162.89,-3.21 163.10,-3.25 163.30,-3.30 163.52,-3.27 163.73,-3.25 163.92,-3.16 164.11,-3.07 164.27,-2.93 164.42,-2.78 164.52,-2.59 164.62,-2.41 164.66,-2.20 164.69,-1.99 164.66,-1.78 164.62,-1.57 164.52,-1.38 164.42,-1.19 164.27,-1.05 164.12,-0.90 163.92,-0.81 163.73,-0.72 163.73,-0.72 163.73,-0.72 161.06,-0.02 158.39,0.67 154.00,0.26 149.60,-0.15 143.26,-0.47 136.92,-0.79 129.56,-1.54 122.19,-2.29 114.26,-2.70 106.33,-3.10 97.81,-3.39 89.29,-3.67 80.70,-3.66 72.10,-3.66 63.39,-3.64 54.67,-3.63 47.00,-3.59 39.34,-3.55 32.82,-3.46 26.29,-3.37 21.13,-3.17 15.97,-2.97 13.10,-2.47 10.23,-1.98 7.70,-1.55 5.17,-1.12 2.88,0.02 0.58,1.17 0.43,1.22 0.28,1.28 0.13,1.29 -0.02,1.31 -0.18,1.29 -0.33,1.26 -0.48,1.20 -0.63,1.15 -0.76,1.05 -0.89,0.96 -0.99,0.84 -1.09,0.72 -1.16,0.58 -1.23,0.44 -1.27,0.28 -1.30,0.13 -1.30,-0.02 -1.30,-0.18 -1.25,-0.33 -1.21,-0.48 -1.14,-0.62 -1.06,-0.76 -0.95,-0.88 -0.85,-1.00 -0.71,-1.08 -0.58,-1.17 -0.58,-1.17 L -0.58,-1.17 Z"/></g><g transform="translate(55 112) rotate(0 86.5 -48)" stroke="none" fill="#000000"><path d="M -1.30,0.14 Q -1.30,0.14 -1.59,-2.44 -1.88,-5.03 -2.00,-7.02 -2.13,-9.01 -2.18,-11.02 -2.23,-13.03 -2.25,-15.03 -2.28,-17.03 -2.29,-19.04 -2.29,-21.04 -2.30,-23.04 -2.30,-25.04 -2.30,-26.75 -2.31,-28.46 -2.31,-30.05 -2.31,-31.64 -2.31,-33.18 -2.31,-34.72 -2.31,-35.95 -2.31,-37.18 -2.31,-38.28 -2.31,-39.37 -2.31,-40.71 -2.31,-42.04 -1.98,-43.37 -1.66,-44.70 -0.53,-46.01 0.58,-47.32 1.58,-48.36 2.59,-49.40 3.67,-50.19 4.75,-50.99 5.80,-51.62 6.85,-52.24 7.88,-52.80 8.90,-53.36 10.07,-53.65 11.23,-53.94 12.91,-54.05 14.59,-54.16 16.44,-54.20 18.30,-54.24 20.15,-53.65 22.00,-53.06 23.08,-52.49 24.16,-51.93 25.24,-51.44 26.32,-50.95 26.44,-50.85 26.55,-50.74 26.64,-50.61 26.73,-50.47 26.78,-50.33 26.83,-50.18 26.85,-50.02 26.86,-49.86 26.84,-49.70 26.82,-49.55 26.76,-49.40 26.70,-49.25 26.61,-49.13 26.52,-49.00 26.39,-48.90 26.27,-48.79 26.13,-48.72 25.99,-48.65 25.84,-48.62 25.68,-48.58 25.52,-48.59 25.36,-48.59 25.21,-48.63 25.06,-48.67 24.92,-48.75 24.78,-48.83 23.51,-49.90 22.25,-50.97 21.20,-51.46 20.16,-51.95 18.98,-52.84 17.79,-53.73 16.03,-55.63 14.27,-57.53 13.79,-58.76 13.32,-60.00 13.12,-61.75 12.93,-63.50 12.87,-65.44 12.82,-67.37 14.31,-69.90 15.81,-72.43 17.90,-74.88 19.99,-77.33 22.63,-79.83 25.26,-82.33 28.42,-84.84 31.57,-87.36 34.93,-89.86 38.28,-92.37 41.72,-94.87 45.15,-97.37 48.42,-99.06 51.69,-100.75 54.32,-101.49 56.94,-102.23 58.95,-102.54 60.95,-102.86 62.68,-102.99 64.41,-103.12 66.02,-103.17 67.62,-103.23 68.87,-103.25 70.13,-103.27 71.53,-103.28 72.93,-103.29 74.53,-102.99 76.12,-102.69 77.51,-101.93 78.89,-101.16 80.06,-100.23 81.22,-99.31 82.29,-98.33 83.35,-97.36 84.16,-96.29 84.97,-95.22 85.87,-93.93 86.77,-92.63 87.69,-91.55 88.60,-90.48 89.11,-89.25 89.62,-88.02 90.07,-87.03 90.51,-86.04 91.04,-84.80 91.57,-83.56 91.72,-83.02 91.88,-82.49 91.94,-82.34 92.01,-82.20 92.04,-82.05 92.07,-81.89 92.06,-81.73 92.06,-81.57 92.01,-81.42 91.97,-81.27 91.89,-81.13 91.81,-81.00 91.70,-80.88 91.59,-80.77 91.45,-80.69 91.32,-80.60 91.17,-80.55 91.02,-80.50 90.86,-80.49 90.70,-80.48 90.54,-80.51 90.39,-80.53 90.24,-80.60 90.10,-80.66 89.97,-80.76 89.85,-80.85 89.75,-80.98 89.65,-81.10 90.76,-83.03 91.88,-84.97 93.14,-85.87 94.41,-86.77 96.14,-87.76 97.87,-88.74 100.39,-89.75 102.90,-90.77 105.32,-92.02 107.74,-93.27 110.26,-94.41 112.78,-95.54 114.97,-96.58 117.17,-97.63 119.01,-98.38 120.84,-99.13 122.90,-99.48 124.95,-99.83 126.38,-99.97 127.82,-100.11 129.19,-100.09 130.56,-100.08 131.97,-98.81 133.39,-97.53 134.25,-95.42 135.12,-93.30 135.75,-90.68 136.38,-88.05 136.65,-84.86 136.92,-81.67 137.04,-78.60 137.15,-75.53 137.19,-72.79 137.24,-70.05 137.26,-68.31 137.28,-66.57 137.24,-64.94 137.21,-63.31 138.29,-63.62 139.37,-63.92 140.90,-64.31 142.43,-64.70 144.02,-64.88 145.62,-65.06 147.46,-65.13 149.30,-65.20 151.51,-65.23 153.73,-65.26 156.14,-65.27 158.56,-65.27 160.99,-64.06 163.42,-62.85 165.54,-61.47 167.66,-60.09 169.51,-58.28 171.35,-56.47 172.47,-54.76 173.59,-53.04 174.11,-51.02 174.63,-49.00 174.83,-46.39 175.03,-43.79 174.82,-40.90 174.61,-38.01 173.92,-35.55 173.24,-33.08 172.32,-31.38 171.41,-29.68 170.42,-28.36 169.43,-27.04 168.73,-26.20 168.02,-25.36 168.90,-23.70 169.79,-22.03 170.27,-20.58 170.76,-19.12 170.92,-16.73 171.09,-14.35 169.96,-10.85 168.84,-7.36 166.26,-4.06 163.68,-0.77 161.11,1.49 158.54,3.76 158.36,3.87 158.18,3.98 157.97,4.03 157.77,4.08 157.56,4.06 157.34,4.04 157.15,3.95 156.96,3.87 156.80,3.72 156.64,3.58 156.54,3.39 156.44,3.21 156.40,3.00 156.36,2.79 156.39,2.58 156.42,2.37 156.52,2.18 156.62,1.99 156.77,1.84 156.92,1.69 157.11,1.60 157.30,1.51 157.51,1.48 157.73,1.46 157.93,1.50 158.14,1.54 158.33,1.65 158.51,1.75 158.65,1.91 158.79,2.07 158.87,2.27 158.95,2.47 158.97,2.68 158.98,2.89 158.93,3.10 158.88,3.30 158.76,3.48 158.64,3.66 158.48,3.79 158.31,3.92 158.11,3.99 157.91,4.06 157.70,4.06 157.48,4.07 157.28,4.00 157.08,3.94 156.91,3.81 156.74,3.69 156.61,3.51 156.49,3.34 156.43,3.13 156.37,2.93 156.38,2.72 156.39,2.51 156.46,2.31 156.54,2.11 156.67,1.94 156.81,1.78 156.81,1.78 156.81,1.78 159.22,-0.31 161.63,-2.41 164.00,-5.32 166.37,-8.24 167.42,-11.25 168.48,-14.25 168.16,-17.29 167.85,-20.32 167.07,-21.08 166.29,-21.84 165.76,-23.66 165.23,-25.48 166.28,-27.05 167.34,-28.62 168.22,-29.78 169.11,-30.94 169.91,-32.38 170.72,-33.81 171.36,-36.02 171.99,-38.22 172.20,-40.91 172.41,-43.60 172.24,-46.00 172.07,-48.39 171.72,-50.03 171.36,-51.66 170.43,-53.14 169.49,-54.61 167.86,-56.25 166.22,-57.89 164.20,-59.21 162.19,-60.53 160.31,-61.60 158.42,-62.68 156.09,-62.66 153.76,-62.64 151.58,-62.61 149.40,-62.58 147.65,-62.51 145.91,-62.45 144.49,-62.30 143.07,-62.15 141.56,-61.77 140.04,-61.38 138.91,-61.14 137.78,-60.90 136.28,-61.86 134.77,-62.82 134.71,-64.68 134.65,-66.54 134.63,-68.28 134.61,-70.01 134.57,-72.72 134.52,-75.44 134.41,-78.45 134.31,-81.46 134.07,-84.45 133.83,-87.45 133.25,-89.90 132.67,-92.35 132.06,-94.07 131.44,-95.79 129.75,-96.64 128.07,-97.49 126.72,-97.36 125.37,-97.24 123.60,-96.96 121.82,-96.69 120.06,-95.97 118.30,-95.26 116.08,-94.20 113.85,-93.14 111.40,-92.04 108.94,-90.94 106.41,-89.64 103.88,-88.33 101.52,-87.39 99.16,-86.45 97.55,-85.54 95.93,-84.63 93.90,-83.56 91.88,-82.49 91.94,-82.34 92.01,-82.20 92.04,-82.05 92.07,-81.89 92.06,-81.73 92.06,-81.57 92.01,-81.42 91.97,-81.27 91.89,-81.13 91.81,-81.00 91.70,-80.88 91.59,-80.77 91.45,-80.69 91.32,-80.60 91.17,-80.55 91.02,-80.50 90.86,-80.49 90.70,-80.48 90.54,-80.51 90.39,-80.53 90.24,-80.60 90.10,-80.66 89.97,-80.76 89.85,-80.85 89.75,-80.98 89.65,-81.10 89.49,-81.64 89.33,-82.19 88.72,-83.58 88.12,-84.97 87.35,-86.89 86.58,-88.82 85.59,-89.98 84.61,-91.14 83.74,-92.40 82.87,-93.65 82.22,-94.54 81.58,-95.43 80.57,-96.34 79.57,-97.26 78.57,-98.07 77.57,-98.89 76.57,-99.51 75.57,-100.13 74.26,-100.40 72.94,-100.67 71.56,-100.66 70.18,-100.65 68.94,-100.63 67.71,-100.60 66.16,-100.55 64.61,-100.50 62.98,-100.38 61.35,-100.26 59.50,-99.98 57.65,-99.70 55.27,-99.05 52.89,-98.41 49.79,-96.82 46.70,-95.24 43.27,-92.75 39.85,-90.26 36.53,-87.78 33.21,-85.30 30.14,-82.86 27.07,-80.42 24.53,-78.02 21.98,-75.62 20.00,-73.32 18.02,-71.01 16.70,-69.11 15.37,-67.21 15.46,-65.48 15.54,-63.76 15.95,-61.44 16.36,-59.11 17.87,-57.47 19.39,-55.82 20.36,-55.06 21.34,-54.30 22.67,-53.61 24.01,-52.92 25.16,-51.94 26.32,-50.95 26.44,-50.85 26.55,-50.74 26.64,-50.61 26.73,-50.47 26.78,-50.33 26.83,-50.18 26.85,-50.02 26.86,-49.86 26.84,-49.70 26.82,-49.55 26.76,-49.40 26.70,-49.25 26.61,-49.13 26.52,-49.00 26.39,-48.90 26.27,-48.79 26.13,-48.72 25.99,-48.65 25.84,-48.62 25.68,-48.58 25.52,-48.59 25.36,-48.59 25.21,-48.63 25.06,-48.67 24.92,-48.75 24.78,-48.83 24.67,-48.72 24.55,-48.61 22.85,-49.59 21.15,-50.58 19.73,-51.10 18.31,-51.62 16.53,-51.58 14.75,-51.54 12.44,-51.29 10.13,-51.04 9.16,-50.51 8.19,-49.99 7.24,-49.42 6.29,-48.86 5.38,-48.21 4.47,-47.56 3.48,-46.55 2.50,-45.53 1.40,-43.78 0.31,-42.02 0.31,-40.70 0.31,-39.37 0.31,-38.28 0.31,-37.18 0.31,-35.95 0.31,-34.72 0.31,-33.18 0.31,-31.65 0.31,-30.06 0.31,-28.47 0.31,-26.75 0.31,-25.04 0.32,-23.05 0.32,-21.05 0.33,-19.06 0.34,-17.06 0.36,-15.08 0.38,-13.10 0.44,-11.14 0.49,-9.18 0.61,-7.25 0.73,-5.31 1.01,-2.73 1.30,-0.14 1.30,0.01 1.30,0.17 1.26,0.32 1.22,0.47 1.14,0.61 1.07,0.75 0.96,0.87 0.86,0.99 0.72,1.08 0.59,1.16 0.44,1.22 0.30,1.27 0.14,1.29 -0.01,1.31 -0.17,1.29 -0.32,1.27 -0.47,1.21 -0.62,1.15 -0.75,1.06 -0.88,0.97 -0.98,0.85 -1.08,0.73 -1.16,0.59 -1.23,0.45 -1.26,0.29 -1.30,0.14 -1.30,0.14 L -1.30,0.14 Z"/></g><g stroke-linecap="round" transform="translate(10 169) rotate(0 28 48.5)"><path d="M-0.73 -1.84 C15.79 0.19, 27.49 1.35, 57.86 -1.06 M-0.47 -0.03 C15.19 -0.08, 31.43 0.77, 55.55 -0.28 M56.21 -1.93 C55.19 22.71, 56.91 49.55, 54.2 95.38 M55.7 -0.09 C56 30.47, 54.34 61.56, 55.41 96.87 M54.69 96.53 C34.61 98.71, 17.27 99.05, -1.54 96.1 M56.56 96.42 C43.96 95.93, 32.14 95.71, -0.57 97.92 M-1.04 97.54 C-1.4 58.47, -1.7 23.89, -0.53 -0.59 M0.65 96.26 C-0.37 75.99, 1.32 56.57, 0.05 1" stroke="#000000" stroke-width="1" fill="none"/></g><g stroke-linecap="round" transform="translate(200 172) rotate(0 32.5 25.5)"><path d="M1.37 -1.17 C25.31 1.74, 50.48 0.86, 63.69 -0.47 M0.97 -0.77 C15.64 -1.44, 32.01 -1.16, 65.56 -0.58 M63 -1.14 C66.44 18.28, 65.09 34.95, 63.96 51.54 M65.43 -0.26 C64.31 11.44, 63.98 25.03, 65.65 50.26 M65.91 51.11 C53.86 51.22, 40.46 53.39, 0.21 51.81 M64.86 50.3 C50.6 50.64, 37.53 50.78, -0.15 51.23 M-0.34 50.65 C-1.41 35.77, -0.71 16.77, -0.31 -0.32 M0.61 50.42 C0.61 32.77, -0.33 13.47, -0.59 0.71" stroke="#000000" stroke-width="1" fill="none"/></g><g stroke-linecap="round"><g transform="translate(198 219) rotate(0 -17.5 25)"><path d="M-0.32 -0.17 C-6.12 8.23, -30.02 40.87, -35.83 49.25 M1.71 -1.3 C-3.61 7.33, -27.26 41.6, -33.56 50.4" stroke="#000000" stroke-width="1" fill="none"/></g></g><g stroke-linecap="round"><g transform="translate(269 225) rotate(0 11 20)"><path d="M-0.12 -1.16 C3.54 5.31, 18.95 32.02, 22.49 38.85 M-1.64 0.84 C1.86 7.42, 17.59 33.09, 21.79 39.78" stroke="#000000" stroke-width="1" fill="none"/></g></g><g stroke-linecap="round"><g transform="translate(161.3879977224581 264.29538962958753) rotate(0 68.05324673865923 1.557152863211975)"><path d="M0.56 -0.69 C23.51 -0.41, 114.09 1.24, 136.6 1.98 M-0.61 1.56 C22.33 1.92, 113.37 2.9, 135.92 2.92" stroke="#000000" stroke-width="1" fill="none"/></g></g><g stroke-linecap="round"><g transform="translate(90 134) rotate(0 -19.5 25.5)"><path d="M0.58 -0.51 C-5.83 7.8, -31.45 41.52, -38.02 50.18 M-0.57 -1.82 C-7.1 6.59, -31.96 42.76, -38.46 51.29" stroke="#000000" stroke-width="1" fill="none"/></g></g><g stroke-linecap="round"><g transform="translate(109 137) rotate(0 -21.5 30.5)"><path d="M0.67 -0.19 C-6.45 9.74, -35.77 49.96, -43.03 60.17 M-0.44 -1.33 C-7.69 8.68, -36.8 50.64, -43.99 61.27" stroke="#000000" stroke-width="1" fill="none"/></g></g><g stroke-linecap="round"><g transform="translate(173.6522850448694 155.37855908280847) rotate(39.10730349540265 24.05866841225103 10.613962754460452)"><path d="M-1.08 0.51 C6.75 4.02, 38.94 16.66, 47.04 20.28 M0.55 -0.26 C8.73 3.43, 41.54 17.87, 49.19 21.33" stroke="#000000" stroke-width="1" fill="none"/></g></g><g stroke-linecap="round"><g transform="translate(202.5 138.83333333333337) rotate(0 14 26)"><path d="M-0.02 -0.18 C4.42 8.63, 22.32 43.31, 26.88 52.2 M-1.49 -1.32 C3.28 7.16, 24.38 41.39, 29 50.19" stroke="#000000" stroke-width="1" fill="none"/></g></g></svg>